<?xml version="1.0" encoding="UTF-8" standalone="no"?><!DOCTYPE svg PUBLIC "-//W3C//DTD SVG 1.1//EN" "http://www.w3.org/Graphics/SVG/1.1/DTD/svg11.dtd"><svg width="100%" height="100%" viewBox="0 0 9167 9167" version="1.1" xmlns="http://www.w3.org/2000/svg" xmlns:xlink="http://www.w3.org/1999/xlink" xml:space="preserve" xmlns:serif="http://www.serif.com/" style="fill-rule:evenodd;clip-rule:evenodd;stroke-linejoin:round;stroke-miterlimit:2;"><g><path d="M6102.431,4925.843c-90.077,99.258 -218.427,155.057 -352.446,155.057l-2333.29,0c-134.02,0 -262.366,-55.799 -352.449,-155.057c-255.063,-281.087 -407.066,-634.822 -407.066,-1019.098c0,-384.253 151.974,-737.985 407.036,-1019.062c90.083,-99.278 218.43,-155.086 352.478,-155.086l2333.258,0c135.663,0 264.754,57.815 355.636,158.549c253.188,280.523 403.895,632.918 403.895,1015.599c0,384.276 -151.997,738.011 -407.053,1019.098Zm-1519.094,-3122.134c-1349.865,0 -2444.139,941.575 -2444.139,2103.037c0,598.45 290.504,1138.491 756.78,1521.446c-5.963,182.602 -69.687,363.335 -181.126,508.276c216.042,-8.634 427.665,-94.716 590.405,-236.79c371.856,196.648 809.592,310.114 1278.081,310.114c1349.862,0 2444.153,-941.585 2444.153,-2103.047c0,-1161.461 -1094.29,-2103.037 -2444.153,-2103.037Z" style="fill:#ff5256;fill-rule:nonzero;"/><path d="M2022.809,3906.746c0,288.464 62.529,568.198 186.046,832.501c-329.988,-108.504 -570.125,-323.29 -570.125,-832.501c0,-483.009 240.137,-723.99 570.154,-832.491c-123.488,264.431 -186.075,544.284 -186.075,832.491Z" style="fill:#ff5256;fill-rule:nonzero;"/><path d="M1923.821,2449.922l0,630.473c-85.634,55.283 -158.085,121.945 -216.658,199.544c-0.522,0.699 -1.047,1.369 -1.54,2.065l0,-832.082c0,-60.231 48.853,-109.084 109.084,-109.084c60.257,0 109.113,48.853 109.113,109.084Z" style="fill:#ff5256;fill-rule:nonzero;"/><path d="M7143.854,3906.746c0,288.464 -62.532,568.198 -186.049,832.501c329.991,-108.504 570.131,-323.29 570.131,-832.501c0,-483.009 -240.14,-723.99 -570.131,-832.491c123.485,264.431 186.049,544.284 186.049,832.491Z" style="fill:#ff5256;fill-rule:nonzero;"/><path d="M7242.855,2449.922l0,630.473c85.631,55.283 158.085,121.945 216.654,199.544c0.516,0.699 1.031,1.369 1.546,2.065l0,-832.082c0,-60.231 -48.872,-109.084 -109.084,-109.084c-60.277,0 -109.117,48.853 -109.117,109.084Z" style="fill:#ff5256;fill-rule:nonzero;"/><path d="M4063.949,3841.54c-70.992,109.31 -173.462,0 -387.488,0c-213.993,0 -316.464,109.31 -387.452,0c-68.727,-105.83 120.892,-366.905 387.452,-366.905c266.564,0 456.182,261.075 387.488,366.905Z" style="fill:#ff5256;fill-rule:nonzero;"/><path d="M5877.69,3841.54c-71.005,109.31 -173.485,0 -387.497,0c-213.981,0 -316.46,109.31 -387.465,0c-68.717,-105.83 120.908,-366.905 387.465,-366.905c266.557,0 456.182,261.075 387.497,366.905Z" style="fill:#ff5256;fill-rule:nonzero;"/><path d="M4583.304,4338.862c-149.355,0 -247.936,-118.459 -252.06,-123.485c-22.326,-27.319 -18.299,-67.59 9.021,-89.916c27.352,-22.358 67.59,-18.299 89.948,9.02c0.387,0.483 65.141,76.578 153.092,76.578c87.951,0 152.705,-76.095 153.349,-76.868c22.326,-27.319 62.467,-31.217 89.819,-8.892c27.319,22.358 31.25,62.757 8.892,90.077c-4.124,5.026 -102.673,123.485 -252.06,123.485Z" style="fill:#ff5256;fill-rule:nonzero;"/><g transform="matrix(1129.447967,0,0,1129.447967,6676.774873,6919.609184)"></g><text x="2494.429px" y="6919.609px" style="font-family:'Coolvetica-Regular', 'Coolvetica', sans-serif;font-size:1129.448px;fill:#ff5256;">MetaBot</text></g></svg>